<svg width="31" height="31" fill="none" xmlns="http://www.w3.org/2000/svg"><path fill-rule="evenodd" clip-rule="evenodd" d="M1.087 29.614a.426.426 0 0 1-.015.003l-.022-.012c-.108-.056-.14-.1-.147-.11-.005-.008-.02-.033-.02-.106V10.5c0-5.097 3.93-9.118 8.786-9.118h10.743c4.856 0 8.786 4.021 8.786 9.118v4.444c0 5.097-3.93 9.118-8.786 9.118h-5.05c-5.123 0-10.127 1.941-14.032 5.474a1.584 1.584 0 0 1-.243.078Zm-.013.886c.215 0 .537-.111.752-.222 3.76-3.445 8.595-5.334 13.536-5.334h5.05c5.371 0 9.668-4.444 9.668-10V10.5c0-5.556-4.297-10-9.668-10H9.669C4.297.5 0 4.944 0 10.5v18.889c0 .444.215.778.645 1 .107.111.322.111.43.111Zm9.955-16.765a1.323 1.323 0 1 0 0-2.647 1.323 1.323 0 0 0 0 2.647Zm5.736-1.323a1.324 1.324 0 1 1-2.647 0 1.324 1.324 0 0 1 2.647 0Zm3.088 1.323a1.324 1.324 0 1 0 0-2.647 1.324 1.324 0 0 0 0 2.647Z" fill="#000"/></svg>