<svg xmlns="http://www.w3.org/2000/svg">
    <symbol id="user">
        <path fill-rule="evenodd" clip-rule="evenodd" d="M13.876 2.448a3.375 3.375 0 1 0 0 6.75 3.375 3.375 0 0 0 0-6.75ZM8.501 5.823a5.375 5.375 0 1 1 10.75 0 5.375 5.375 0 0 1-10.75 0ZM12.626 15.573c-5.775 0-10.25 4.137-10.25 9a1 1 0 1 1-2 0c0-6.183 5.599-11 12.25-11a1 1 0 0 1 0 2Zm8.668.168a1 1 0 0 1 1.414 0l2.5 2.5a1 1 0 0 1 0 1.414l-6.25 6.25a1 1 0 0 1-.707.293h-2.5a1 1 0 0 1-1-1v-2.5a1 1 0 0 1 .293-.707l6.25-6.25Zm-4.543 7.372v1.085h1.086l5.25-5.25L22 17.863l-5.25 5.25Z"/>
    </symbol>


    <symbol id="email">
        <path d="M15.876 3.76a12.188 12.188 0 0 0 0 24.376c2.52 0 5.168-.76 7.082-2.031a.939.939 0 0 0-1.039-1.562c-1.59 1.06-3.909 1.718-6.043 1.718a10.313 10.313 0 1 1 10.313-10.313c0 3.1-1.276 3.75-2.344 3.75-1.069 0-2.344-.65-2.344-3.75v-4.687a.938.938 0 0 0-1.875 0v.499a5.625 5.625 0 1 0 .695 7.629c.703 1.406 1.916 2.184 3.524 2.184 2.641 0 4.219-2.102 4.219-5.625A12.2 12.2 0 0 0 15.876 3.761Zm0 15.938a3.75 3.75 0 1 1 0-7.5 3.75 3.75 0 0 1 0 7.5Z"/>
    </symbol>



    <symbol id="message">
        <path d="M20.273 5.107a3.75 3.75 0 0 1 3.744 3.53l.006.22v2.5a3.75 3.75 0 0 1 3.744 3.53l.006.22v5a3.75 3.75 0 0 1-3.53 3.744l-.22.006v1.208c0 1.275-1.428 1.992-2.442 1.291l-.12-.09-2.89-2.409h-4.548a3.736 3.736 0 0 1-2.497-.952l-.175-.168-2.328 1.745c-.988.742-2.382.094-2.492-1.098l-.008-.152v-1.875a3.75 3.75 0 0 1-3.743-3.53l-.007-.22v-8.75a3.75 3.75 0 0 1 3.53-3.743l.22-.007h13.75Zm3.75 8.75h-10a1.25 1.25 0 0 0-1.25 1.25v5a1.25 1.25 0 0 0 1.25 1.25h4.548a2.5 2.5 0 0 1 1.6.58l1.36 1.133a1.875 1.875 0 0 1 1.867-1.713h.625a1.25 1.25 0 0 0 1.25-1.25v-5a1.25 1.25 0 0 0-1.25-1.25Zm-3.75-6.25H6.523a1.25 1.25 0 0 0-1.25 1.25v8.75a1.25 1.25 0 0 0 1.25 1.25h.625a1.875 1.875 0 0 1 1.875 1.875v.625l1.263-.946a3.85 3.85 0 0 1-.013-.304v-5a3.75 3.75 0 0 1 3.75-3.75h7.5v-2.5a1.25 1.25 0 0 0-1.25-1.25Z"/>
    </symbol>
</svg>